<?xml version="1.0" encoding="UTF-8" standalone="no"?>
<!DOCTYPE svg PUBLIC "-//W3C//DTD SVG 1.1//EN"
 "http://www.w3.org/Graphics/SVG/1.1/DTD/svg11.dtd">
<!-- Generated by graphviz version 2.30.1 (20130221.2233)
 -->
<!-- Title: G Pages: 1 -->
<svg width="130pt" height="134pt"
 viewBox="0.00 0.00 130.00 134.00" xmlns="http://www.w3.org/2000/svg" xmlns:xlink="http://www.w3.org/1999/xlink">
<g id="graph0" class="graph" transform="scale(1 1) rotate(0) translate(4 130)">
<title>G</title>
<polygon fill="white" stroke="white" points="-4,5 -4,-130 127,-130 127,5 -4,5"/>
<g id="clust1" class="cluster"><title>cluster_Global</title>
<path fill="none" stroke="gray" d="M20,-8C20,-8 102,-8 102,-8 108,-8 114,-14 114,-20 114,-20 114,-106 114,-106 114,-112 108,-118 102,-118 102,-118 20,-118 20,-118 14,-118 8,-112 8,-106 8,-106 8,-20 8,-20 8,-14 14,-8 20,-8"/>
<text text-anchor="middle" x="61" y="-103" font-family="Times,serif" font-size="11.00" fill="gray">\</text>
</g>
<g id="clust2" class="cluster"><title>cluster_\Enumeration</title>
<path fill="none" stroke="gray" d="M28,-16C28,-16 94,-16 94,-16 100,-16 106,-22 106,-28 106,-28 106,-77 106,-77 106,-83 100,-89 94,-89 94,-89 28,-89 28,-89 22,-89 16,-83 16,-77 16,-77 16,-28 16,-28 16,-22 22,-16 28,-16"/>
<text text-anchor="middle" x="61" y="-74" font-family="Times,serif" font-size="11.00" fill="gray">Enumeration</text>
</g>
<!-- \\Enumeration\\Enumeration -->
<g id="node1" class="node"><title>\\Enumeration\\Enumeration</title>
<polygon fill="none" stroke="black" points="97.3157,-60 24.6843,-60 24.6843,-24 97.3157,-24 97.3157,-60"/>
<text text-anchor="middle" x="61" y="-37.6" font-family="Times,serif" font-size="11.00">Enumeration</text>
</g>
</g>
</svg>
